<svg width="152" height="153" viewBox="0 0 152 153" fill="none" xmlns="http://www.w3.org/2000/svg">
<ellipse cx="76" cy="76.5" rx="76" ry="76.5" fill="black"/>
<path d="M44.0534 40.608C49.6854 40.544 54.5174 41.28 58.5494 42.816C62.6454 44.352 65.7174 46.72 67.7654 49.92C69.8774 53.12 70.7094 57.28 70.2614 62.4C70.0054 65.792 68.7894 69.088 66.6134 72.288C64.5014 75.488 61.3974 78.144 57.3014 80.256C53.2694 82.368 48.2134 83.52 42.1334 83.712C39.5094 83.776 37.2054 83.776 35.2214 83.712L34.7414 92.16C34.6774 93.952 34.5494 95.648 34.3574 97.248C34.2294 98.848 34.1014 100.064 33.9734 100.896C34.6774 100.832 35.5734 100.8 36.6614 100.8C37.7494 100.736 38.8054 100.704 39.8294 100.704C40.8534 100.64 41.5894 100.608 42.0374 100.608L41.7494 108H13.4294L13.8134 101.664C15.2214 101.6 16.4374 101.408 17.4614 101.088C18.4854 100.768 19.2854 100.032 19.8614 98.88C20.5014 97.728 20.8854 95.872 21.0134 93.312L22.9334 56.544C23.0614 54.816 23.1894 53.152 23.3174 51.552C23.5094 49.952 23.6694 48.736 23.7974 47.904C22.7734 47.968 21.4934 48.032 19.9574 48.096C18.4214 48.096 17.3014 48.128 16.5974 48.192L16.9814 40.8C21.5254 40.736 26.0374 40.704 30.5174 40.704C35.0614 40.704 39.5734 40.672 44.0534 40.608ZM43.5734 47.328C41.5894 47.328 39.9894 47.744 38.7734 48.576C37.5574 49.408 36.8534 51.52 36.6614 54.912L35.6054 76.512C36.9494 76.704 38.3894 76.8 39.9254 76.8C45.2374 76.8 49.1414 75.488 51.6374 72.864C54.1334 70.176 55.5094 66.4 55.7654 61.536C55.8934 58.336 55.5734 55.776 54.8054 53.856C54.0374 51.936 52.9814 50.528 51.6374 49.632C50.3574 48.672 48.9814 48.064 47.5094 47.808C46.1014 47.488 44.7894 47.328 43.5734 47.328ZM107.782 39.264C113.606 39.264 118.534 40.32 122.566 42.432C126.662 44.544 129.926 47.36 132.358 50.88C134.854 54.336 136.614 58.112 137.638 62.208C138.662 66.304 139.078 70.368 138.886 74.4C138.694 78.368 137.798 82.4 136.198 86.496C134.662 90.592 132.422 94.4 129.478 97.92C126.598 101.376 123.014 104.192 118.726 106.368C114.502 108.48 109.542 109.536 103.846 109.536C97.7656 109.536 92.6456 108.512 88.4856 106.464C84.3896 104.416 81.1256 101.696 78.6936 98.304C76.3256 94.848 74.6616 91.04 73.7016 86.88C72.7416 82.72 72.3896 78.56 72.6456 74.4C72.8376 70.368 73.7016 66.304 75.2376 62.208C76.7736 58.048 79.0136 54.24 81.9576 50.784C84.9016 47.328 88.5176 44.544 92.8056 42.432C97.0936 40.32 102.086 39.264 107.782 39.264ZM106.15 45.792C102.886 45.856 100.07 46.752 97.7016 48.48C95.3976 50.208 93.5096 52.448 92.0376 55.2C90.5656 57.952 89.4456 60.928 88.6776 64.128C87.9736 67.264 87.5576 70.304 87.4296 73.248C87.2376 76.256 87.3656 79.488 87.8136 82.944C88.3256 86.336 89.2536 89.568 90.5976 92.64C91.9416 95.712 93.7976 98.208 96.1656 100.128C98.5336 102.048 101.542 103.008 105.19 103.008C108.518 103.008 111.334 102.176 113.638 100.512C116.006 98.784 117.926 96.576 119.398 93.888C120.87 91.2 121.99 88.288 122.758 85.152C123.526 82.016 123.974 78.976 124.102 76.032C124.422 70.144 123.974 64.928 122.758 60.384C121.606 55.776 119.654 52.16 116.902 49.536C114.214 46.912 110.63 45.664 106.15 45.792Z" fill="url(#paint0_linear)"/>
<defs>
<linearGradient id="paint0_linear" x1="37" y1="50.5" x2="99.7184" y2="98.8308" gradientUnits="userSpaceOnUse">
<stop stop-color="#1FBFFF"/>
<stop offset="1" stop-color="#FF1A6A"/>
</linearGradient>
</defs>
</svg>
