<svg width="152" height="153" viewBox="0 0 152 153" fill="none" xmlns="http://www.w3.org/2000/svg">
<ellipse cx="76" cy="76.5" rx="76" ry="76.5" fill="black"/>
<path d="M32.6162 98.6094C30.3037 102.078 28.0225 104.906 25.7725 107.094C23.5537 109.25 21.3975 110.328 19.3037 110.328C18.2412 110.328 17.4444 110.078 16.9131 109.578C16.0069 108.766 15.5537 108 15.5537 107.281C15.5537 106.562 15.7881 106.031 16.2569 105.688C20.9756 102.281 26.21 92.2812 31.96 75.6875L34.7256 67.8125C37.9131 58.8125 40.6162 53.2344 42.835 51.0781C43.6162 50.4844 44.4287 50.1875 45.2725 50.1875C46.1162 50.1875 46.8506 50.3281 47.4756 50.6094C48.1006 50.8594 48.6475 51.1875 49.1162 51.5938C50.1787 52.5312 50.71 53.625 50.71 54.875C50.71 55.3438 50.4912 56.0156 50.0537 56.8906C49.6162 57.7656 49.1162 58.9062 48.5537 60.3125L42.6006 76.8594C50.1944 75.4844 56.46 72.3438 61.3975 67.4375C66.0225 62.8438 68.335 58.125 68.335 53.2812C68.335 48.6875 66.2725 45.6719 62.1475 44.2344C60.7412 43.7344 59.1006 43.4844 57.2256 43.4844C55.3819 43.4844 53.4912 43.7188 51.5537 44.1875C49.6162 44.6562 47.71 45.2656 45.835 46.0156C42.0537 47.5469 38.96 49.3438 36.5537 51.4062C35.9287 52 35.2412 52.2969 34.4912 52.2969C33.7412 52.2969 33.0381 52.1406 32.3819 51.8281C31.7256 51.5156 31.1475 51.1094 30.6475 50.6094C29.4912 49.5156 28.9131 48.4062 28.9131 47.2812C28.9131 46.125 29.3194 45.0938 30.1319 44.1875C30.9444 43.2812 32.0225 42.4688 33.3662 41.75C34.71 41 36.2569 40.3438 38.0069 39.7812C39.7569 39.1875 41.5537 38.6875 43.3975 38.2812C47.1475 37.5 50.8662 37.1094 54.5537 37.1094C58.2725 37.1094 61.6631 37.5781 64.7256 38.5156C67.8194 39.4219 70.3662 40.6562 72.3662 42.2188C76.3975 45.3438 78.4131 49.3125 78.4131 54.125V54.875C78.1319 60.7812 75.8975 65.9844 71.71 70.4844C68.0537 74.3906 63.335 77.4688 57.5537 79.7188C52.335 81.7812 47.3975 82.8125 42.7412 82.8125H41.5225C41.1162 82.8125 40.7256 82.7812 40.3506 82.7188C37.5381 89.8125 34.96 95.1094 32.6162 98.6094ZM75.9775 88.625C76.1025 84.875 76.6806 80.9375 77.7119 76.8125C78.7744 72.6562 80.2119 68.6562 82.0244 64.8125C83.8369 60.9688 85.9775 57.3594 88.4463 53.9844C90.9463 50.6094 93.6806 47.6719 96.6494 45.1719C103.024 39.7969 109.712 37.1094 116.712 37.1094C125.212 37.1094 130.759 40.9688 133.353 48.6875C134.29 51.4062 134.696 54.7656 134.571 58.7656C134.478 62.7344 133.868 66.7812 132.743 70.9062C131.649 75.0312 130.149 79.0156 128.243 82.8594C126.368 86.7031 124.165 90.3125 121.634 93.6875C119.103 97.0312 116.353 99.9375 113.384 102.406C107.04 107.781 100.696 110.469 94.3525 110.469C88.665 110.469 84.1494 108.609 80.8056 104.891C77.3994 101.078 75.79 95.6562 75.9775 88.625ZM91.2588 70.625C89.665 74.25 88.3681 77.9531 87.3681 81.7344C86.3994 85.5156 85.8681 88.7344 85.7744 91.3906C85.7119 94.0156 85.8681 96.0625 86.2431 97.5312C86.6494 98.9688 87.2119 100.188 87.9306 101.188C89.4306 103.312 91.3525 104.375 93.6963 104.375C96.0713 104.375 98.4463 103.609 100.821 102.078C103.196 100.547 105.493 98.5 107.712 95.9375C109.962 93.375 112.087 90.4219 114.087 87.0781C116.118 83.7344 117.899 80.25 119.431 76.625C123.868 66.0938 125.493 57.4062 124.306 50.5625C123.493 45.8125 120.899 43.4375 116.524 43.4375C112.524 43.4375 108.071 46.1562 103.165 51.5938C98.54 56.6562 94.5713 63 91.2588 70.625Z" fill="url(#paint0_linear)"/>
<defs>
<linearGradient id="paint0_linear" x1="37" y1="54.5" x2="99.7184" y2="102.831" gradientUnits="userSpaceOnUse">
<stop stop-color="#1FBFFF"/>
<stop offset="1" stop-color="#FF1A6A"/>
</linearGradient>
</defs>
</svg>
